<svg xmlns="http://www.w3.org/2000/svg" viewBox="0 0 534.3 61.2" xml:space="preserve"><path fill="#2F2A17" d="M319.4 60.2c-16.4 0-29.7-13.3-29.6-29.7S303.1.8 319.5.9c16.4 0 29.6 13.3 29.6 29.7 0 16.3-13.3 29.6-29.7 29.6m0-60.2c-16.9 0-30.5 13.7-30.5 30.6s13.7 30.5 30.6 30.5c16.8 0 30.5-13.7 30.5-30.5C350 13.7 336.3 0 319.4 0"/><path fill="#2F2A17" d="M339.5 35.5c-.9.8-2.4.9-3 1.4-.3.3-.4.7-.1 1.5.2.5.3.5-.3.7-1.1.3-1.2 1.7-2.5 1.4-.5-.1-.2.2 0 .3.5.1 1 0 1.3-.4.3-.3.7-.6 1.1-.9.4-.2.9-.1.9.2 0 .2-.5.6-.8.7.3.1 1.1.6.4 1.1-.6.4-1.3-.1-1.4-.2-.2-.1-.5 0-.4.1.4.5 1.5.4 1.3.6-1 1.4-.2 2.2-.5 3.6s-2.2 2.2-3.7 2.4c-5.1.9-10-3.4-12.9-6.6.3-.6.2-1.4 0-1.1-.2.3-.2.7-.8.9-1.2.3-1.7-1.7-2-2.1-1.4-1.2-1.9-3.3-1.1-5 .4-1 1.4-1.4 2.4-1.1.4.1.7.4.9.7.9 1.3.5 2 1 2.4.5.3 1.1.3 1.6 0 .5-.1.5 1.3 2.3 1.2 2-.1 1.7-3.1 2-3.4 2.5-2.4 1.2-4.6.8-5.1-.1-.1.3-1 .4-1.1 1.2-.3 2.3-1.1 2.8-2.3 0 0 2.4 0 3.3-1.8.2-.5 1 .5 2.6-.8.1-.1.3-.1.4 0l.1.1c1 2.6 1.5 3.3 1.4 4.6-.1 1 2.5 6.2 2.7 6.7 0 .6.1 1.1-.2 1.3m-11.6 13.4c-.7 2.6-1.1 3.6 0 6.4.1.4.3.6-.1.6-2.2-.4-2.7-.8-9.8-.2-.5 0 .2-1 .1-1.7.9 0 1.6-.6 1.9-1.4.3-1.3-.6-2.2-.5-2.4 1-1.9-.1-4.1-.9-7.7-.1-.3.1-.5.3-.3 4.5 4.9 7.4 5.9 9 6.3.1 0 .1.2 0 .4m-13.7 6.8c-.5-.1-1.7-2.2-.7-4.6.1-.3 1.7-.1 2 0s-.2 2 2 2.8c.1.1-.1 2.6-3.3 1.8m-3.3-1.2c-.2-1.1-.3-2.9.1-3.3.1-.1 1.4-.3 1.4 0-.1 1.3-.6 2.7.4 4.1.3.5-1.6.6-1.9-.8m7.8-1.3c-.9.3-1.8-.2-2.1-1-.1-.3-.1-.6-.1-.8.2-.3 1.3.3 2.1-.2s1.1 1.6.1 2m-10.2-2.9c-.1-.6.5-1.1.4-2.4 0-1.5-1.9-3.7-3.2-5 .8 0 1.6-.2 2.3-.6 1.2-.6 2-1.7 2.4-3-.3-.1-.7-.2-1.1-.1.1 0 .1-.1.2-.1 1.2-.7 2.1-1.9 2.3-3.2-.4-.1-.8-.1-1.2-.1.2-.1.4-.1.6-.2 1.3-.5 2.2-1.7 2.5-3.1-.3-.1-.7-.1-1-.1.2-.1.4-.1.5-.2 1.2-.6 2.1-1.7 2.4-3-.3-.1-.6-.1-.9-.1.5-.1.9-.2 1.3-.4 1.2-.5 2.1-1.5 2.5-2.8-.3-.1-.6-.2-.9-.2.4-.1.8-.2 1.3-.4 1.2-.4 2.2-1.3 2.6-2.5-.3 0-.6-.2-1.1-.2.6 0 1.3-.2 1.9-.4 2.1-.7 2.8-2 2.9-2.5-.2-.1-.4-.2-.7-.2.5-.1.9-.2 1.3-.4 1.3-.6 2.3-1.6 2.8-2.8.4-.1.8-.3 1.1-.4l.6-.3c.1.1.2.2.5.3.3.2.4.2.3.4-5.3 4.7-9.9 10.1-13.7 16.2-.1.1-.2.1-.4.1-2.3-.2-3.6 2.6-2.6 5.2-.3.6-.8 1.2-1.3 1.6-.1.1-.3.4.1.4.5 0 1.2-.9 1.6-1.3.1.2.6.6.4.8-1.2 1.2-2.6 2.2-4.1 3-.7.4 1.2.6 4.6-2.4.2-.2.4.7.7 1.1-.6 1.9.8 5.5.6 6.7 0 .4-.4.8-.8.8-3.3.1-3.6-.1-5.3.4-.8.2-.6.8 0 .6.6-.2 1.3-.4 4.9-.2.9.1 1.9-.2 1.9-1.7 0-1.3-1.1-5.3-.7-5.9.3.2.6.4 1 .4 0 1.3 2.1 5.5 1.1 7.8-.3.9-1.9.8-4.5.5-4.6-.5-6 .5-6.1-.1m-.1 3.2c-.2-.7-.1-1.4.1-2.1.5-.2 1.4-.3 1.4 0-.2 1-.1 2 .1 3 0 .2-1.3.1-1.6-.9M306.9 40c.9-.4 1.8-.5 2.7-.3-.3 1-1 1.8-1.8 2.3-.8.4-1.7.6-2.6.4.7-.7.6-1.8 1.7-2.4m-2.4 2.1c-.7-.6-1.2-1.5-1.3-2.4v-.2c0-.9.2-1.8.7-2.6.1-.1 1.6 1 1.6 2.5 0 1-.3 2-1 2.7m-1 1.7c-3.1-3.7-4.8-8.4-4.8-13.2 0-11.4 9.4-20.7 20.8-20.7 2.9 0 5.8.6 8.5 1.9-.4.2-.8.5-1.2.8-2.3-1-4.9-1.5-7.4-1.5-10.8 0-19.5 8.7-19.6 19.5-.1 4.5 1.5 8.8 4.3 12.2-.1.2-.3.6-.6 1m0 7.2c-6.3-4.9-10-12.4-10.1-20.4 0-14.3 11.7-26 26-26 4.2 0 8.3 1 12.1 3 .1 0 .1.1 0 .2-1.1 1-2.1 2.1-3 3.3-10.8-5-23.6-.4-28.7 10.4-1.3 2.8-2 5.9-2 9.1-.1 5.1 1.8 10.1 5.2 14-.4.9-.5 1.8-.5 2.7 0 1.3.3 2.5 1 3.7m19.3-31.7c-.2-.1 1.2-1.7 2.4-2.1.8-.3 1.6-.4 2.4-.3-.4.9-1.2 1.6-2.1 1.9-.8.4-1.8.6-2.7.5m-3.5 2.8c.6-.9 1.4-1.6 2.4-2.1.9-.3 1.8-.3 2.7-.1.1.1-.8 1.5-2.3 1.9-1 .3-1.9.4-2.8.3m-3.5 3.3c.5-1 1.2-1.8 2.2-2.3.8-.2 1.7-.2 2.6 0 .3 0-.4 1.3-1.9 1.9-1 .4-2 .5-2.9.4m-3.1 3.5c.6-1 1.4-1.8 2.4-2.4.8-.3 1.6-.4 2.4-.3-.3 1-1 1.8-1.9 2.2-.9.3-1.9.5-2.9.5m-2.6 3.4c.5-1 1.2-1.8 2.2-2.4.8-.3 1.7-.5 2.6-.4-.3 1-.9 1.8-1.8 2.2-1 .5-2 .7-3 .6m-2 3.5c.4-1 1.1-1.9 2.1-2.4.9-.4 1.8-.5 2.7-.4.2.1-.5 1.6-1.7 2.2-1.4.5-1.9.2-3.1.6m0 .9c.9-.4 1.9-.5 2.8-.4-.2 1-.8 1.9-1.7 2.4-.9.5-1.9.7-2.9.6.2-1.1.9-2 1.8-2.6m-2.1-3.6c.8.5 1.2 1.4 1.2 2.4 0 1.1-.5 2.1-1.3 2.7-.3-1.1-.8-1.3-.8-2.3.1-1 .4-2 .9-2.8m3.5-1.8c0 1.2-.6 2.3-1.5 3.1-.4-.7-.6-1.4-.6-2.2-.1-1.1.3-2.1 1-2.8.2.5 1.2.9 1.1 1.9m2.5-3.7c0 .3 0 .6-.1.9-.3.9-.8 1.7-1.5 2.4-.3-.5-.4-1.1-.5-1.7 0-1.2.6-2.4 1.5-3.2.2-.2.6.8.6 1.6m2.5-2c-.3.7-.8 1.3-1.4 1.9-.1.1-.6-1.1-.1-2.6.3-.8.8-1.5 1.5-2 .1-.2.5 1.5 0 2.7m3-3.1c-.5.9-1 .7-1.8 1.9-.1.1-.3-1 .2-2.6.3-.9.9-1.6 1.7-2 .2 0 .5 1.7-.1 2.7m3.2-2.9c-1 1.5-1 1-2.1 2.4-.1-.9 0-1.8.3-2.7.4-.9 1-1.7 1.8-2.2.4.8.4 1.7 0 2.5m2.9-2.2c-.7.5-1.2 1.1-1.6 1.8-.2.3-.5-1.4.5-3.1.5-.7 1.1-1.3 1.9-1.8-.1.5.6 2-.8 3.1m2.7-3.8c.6-.8 1.5-1.3 2.4-1.7 0 1-.5 1.8-1.1 2.5-.7.7-1.6 1.3-2.5 1.8.2-.9.6-1.8 1.2-2.6m-21.5 23.2c-.2-.3-.5-.6-.8-.7-.5.8-.9 1.7-1 2.6-1.3-2.5-2.1-5.3-2.2-8.1-.4-10.3 8.2-18.6 18.8-18.5 2.2 0 4.5.4 6.5 1.3-.5.6-.8 1.2-1.1 1.9 0-.6-.2-1-.1-1.3 0-.2-1.5.3-2.8 2.4-.3.5-.5 1-.6 1.6 0-.5-.1-1-.3-1.4-1.1.5-2 1.4-2.5 2.5-.1.3-.2.7-.3 1 0-.3-.1-.7-.3-.9-1.2.5-2.1 1.4-2.5 2.6-.2.4-.3.9-.3 1.3-.1-.7-.4-1.1-.5-1-.6.7-1.6 1-2.2 2.8-.1.4-.2.8-.2 1.2-.2-.6-.6-.9-.7-.9-1 .8-1.7 1.9-2 3.2-.1.6-.1 1.1 0 1.7-.4-.4-.7-.9-.9-1.4-1 .8-1.6 1.9-1.7 3.1 0 .6.1 1.2.2 1.8-.2-.5-.6-1-1.2-1.2-.8.9-1.3 2-1.4 3.2-.1.3 0 .7.1 1.2M329 14c.7-.3 1.4-.5 2.2-.5.2 0-.5 1.4-1.9 2-.8.4-1.7.6-2.6.7-.2-.1 1.2-1.7 2.3-2.2m-9.3 21.6c-.3-.1-.4-.6-.3-.8.3-.7.7-1.3 1.2-1.9.1-.1.2 0 .2.1.1 1.1-.1 2.8-1.1 2.6m5.6-7.5c-.6.4-1.5-.2-1.4-.4.9-1.3 2-2.3 3.3-3.2 1-.6 1.1-.7 1.2-.3.1.8-.2 1.6-.8 2.2-.4.5-1 .7-1.7.7-.2.1-.1.7-.6 1m-1.8 8.5c-1.2.7-1.8-.7-2-.9-.2-.3-.2-.6-.2-.9.1-.9.1-1.8-.1-2.7-.1-.8 1.5-2.7 1.8-3s.9.2.9.7c0 .9-.4 1.7-1.1 2.1-.8.6-.9 1.3-.8 1.5.1.1.4.1.5-.2.5-1 1.8-1.4 2-2 .2-.5.2-1.1.1-1.6 0-.3.3-.4.5-.3.3 0 .4.4.5.8.8 2.2-1.3 3.5-1.6 4-.1.2.4 1.9-.5 2.5m5.9-13.3c-.1-.4 2.5-1.2 2.6-1 .2.5-.5 1.7-1.4 2-1 .4-1.4.3-1.3.1.1-.2.1-.6.1-1.1m6-1.5c-.3.9-2.7 1.6-2.6 1 .1-.3 0-.6.2-.7.3 0 1-.3 2.2-.6.2 0 .3.1.2.3m-2.4-6.3c.3-.2.7-.3.9-.1.8.8-.8 1.2-.5 1.8.6.9 1.3 1.8 2.2 2.4.4.3.4.9-1 1.2s-6.9 1.7-9.8 4.8c-3.6 3.8-5.9 8.8-6.3 8.1s-1-.8-.9-1c5.3-9 13.5-16 15.4-17.2m-25.3 36.6c-.2 0-.9.1-.7-.8.1-.5.7-.8 1-.5-.1.4-.3.8-.3 1.3m29.7-23.9c-.4-.9-.1-1.5-.3-2.1-.1-.5-.8-2-1.3-3.1-.2-.5 1.1-.4.1-2.2 0-.1 1.3-.6 0-1.6-.7-.5-1.3-1.2-1.7-1.9-.1-.1-.1-.3 0-.4.6-.4.8-1.2.4-1.8-.1-.2-.3-.3-.4-.4-.6-.4-1.3 0-2 .4-.2.1-.3.2-.5.1s-.4-.2-.5-.3c.5-.4.8-1 .9-1.6-1-.3-2-.2-3 .3 0 0-.1 0-.1-.1.4-.6.5-1.3.2-2 1-1.4 2.3-2.7 3.6-3.9.1-.1.1-.2 0-.3-.1-.1-.2-.1-.3-.2-13-7.2-29.4-2.5-36.6 10.5-2.2 4-3.3 8.4-3.4 12.9.1 8.7 4.4 16.9 11.5 22 .2.2.5.3.8.5.1.1.2 0 .3-.1l.1-.1c.1-.1.1-.2.1-.2 0-.2-.3-.4-.6-.9-.9-1.3-1.4-2.8-1.4-4.4 0-1.4.5-2.8 1.3-4 1.1 1.1 3.4 3.2 3.4 5-.1 2.1-2 2-1.6 3.6.3 1 1 .6 1.1 1.3.4 1.2 1.5 2 2.7 2 .2 0 .3.1.7.5.7.4 1.6.5 2.4.4.5-.1 1.2.4 2.3.3 1.4-.2 1.8-.3 2.4-.3 3.5-.1 7 .1 10.5.5.7.1.9-.2.6-.7-1.4-2.2-1.7-4.8-.8-7.2 2.2.4 4.4 0 6.3-1.2.9-.6 1.5-1.7 1.5-2.8-.1-.6-.2-1.3-.1-2 .2-.8.4-.8.6-.9 1.1-.7.3-1.3.1-1.4.4-.3.6-.9.3-1.3-.2-.2-.8-1.8-.1-2.1.7-.4 1.5-.5 2.3-.9.7-.3 1-1.1.7-1.7-.3-1.1-2.5-6-2.5-6.2"/><path fill="#2F2A17" d="M333.6 26.2c-1.4.1-3.1 1.8-3.6 2-.6.3-.4.4 0 .3.7-.3 1.7-1.3 3.1-1.9 1.1-.4 1 .5 1.4.5.2 0 0-.9-.9-.9m-.2 4.1c-.1.3-1.6.1-2.4.1-.2 0-.5 0 .1-.4.6-.5 1.3-.8 2.1-1 .1 0 .2.1.3.2 0 .3 0 .7-.1 1.1m.6-2.7c-.1 0 .1.6-.5.7-1.3.1-2.4 1.4-3.2 1.7-.3.2-.7.3-1.1.4-.1 0-.1.2 0 .2 3.4.5 4.7.3 4.8.2.1-.2-.2-.4-.1-.5.2-.5.2-1.1 0-1.6-.1-.2.5-.1.5-.4-.1-.2-.3-.8-.4-.7m3.9 7.5c-.6.2-1.2.4-1.7.7-.2.1-1.3.8-1.2-.2 0-.4.3-1.3.3-1.5 0-.4-.3-.2-.3 0 0 .5-.1 1-.2 1.5-.1.4.1.8.5.9.2.1.4 0 .6-.1.7-.4 1.4-.8 2.1-1 0 0 .1-.3-.1-.3m-19.8 3.8c-.2-.1-.1.3-.4.3-.4-.1-.1-.4-.5-.9-.2-.2-.8-.3-1.2-1-.7-1.1-.1-3.5.9-3.2.6.2.5 1.5.3 2.4-.1.5.7.8.8.6.1-.3-.3-.3-.4-.6-.2-.4 1-2.2-.5-2.7-1.1-.4-1.9 1-1.7 2.6 0 .9.6 1.7 1.5 2.1.7.3.2 1.2 1.1 1.2.3-.1.3-.8.1-.8m9-29.1h.1l1.9-2.4v-.2l-.4-.2h-.1l-1.9 2.4v.2l.4.2m-3.5-1c.1 0 .2 0 .3.1.1 0 .1 0 .1-.1l1.1-2.8c0-.1 0-.1-.1-.2-.1 0-.2-.1-.4-.1h-.1c-.1.4-.9 2.3-1.1 2.8.1.2.1.3.2.3m-3.9-.4h.3c.1 0 .1 0 .1-.1l.3-2.9c0-.1 0-.1-.1-.1h-.3c-.1 0-.1 0-.1.1l-.3 2.9c-.1.1 0 .1.1.1m-3.8.3c.1 0 .2 0 .3-.1.1 0 .1-.1.1-.1l-.6-2.9c0-.1-.1-.1-.1-.1-.1 0-.2 0-.3.1-.1 0-.1.1-.1.1l.6 2.9c-.1.1 0 .1.1.1m-3.9.9c0 .1.1.1.1.1.1 0 .2-.1.3-.1.1 0 .1-.1.1-.1l-1.3-2.7c0-.1-.1-.1-.1-.1l-.3.1c-.1 0-.1.1-.1.2l1.3 2.6zm-3.6 1.7s.1.1.1 0l.3-.2c.1 0 .1-.1 0-.2l-2-2.3s-.1-.1-.2 0-.2.1-.3.2c-.1 0-.1.1 0 .2l2.1 2.3zm-3.4 2.3h.1l.3-.2c.1 0 .1-.1 0-.2l-2.5-1.7h-.1l-.3.2s-.1.1 0 .2l2.5 1.7zm-2.9 3h.1c.1-.1.1-.2.2-.3v-.2l-2.9-1.1h-.1c-.1.1-.1.2-.2.3v.2l2.9 1.1zm-5.4 3.1 3.1.4s.1 0 .1-.1c.1-.1.1-.2.2-.3v-.2l-3.1-.4c-.1 0-.1 0-.1.1-.1.1-.1.2-.2.3-.2.1-.1.2 0 .2-.1 0 0 0 0 0m-1.7 4.7 3.1-.3s.1 0 .1-.1.1-.2.1-.3c0-.1 0-.1-.1-.1l-3.1.3s-.1 0-.1.1-.1.2-.1.3c-.1 0 0 0 .1.1m2.4 3.7v-.4c0-.1 0-.1-.1-.1h-.1l-3 1.1-.1.1v.4c0 .1 0 .1.1.1l3.2-1.2c-.1.1 0 0 0 0m-.1 4.1v-.4c0-.1-.1-.1-.1-.1h-.1l-2.8 1.8-.1.1c0 .1 0 .2.1.4 0 .1.1.1.1.1l2.7-1.8c.2 0 .2 0 .2-.1m.7 4.2c0-.1-.1-.3-.1-.4 0-.1-.1-.1-.1-.1h-.1l-2.2 2.5v.1c0 .1.1.2.1.4 0 .1.1.1.2.1l2.2-2.5v-.1m1.1 3.6-1.6 3v.1c.1.1.1.2.2.3 0 .1.1.1.2 0l1.6-3v-.1c-.1-.1-.1-.2-.2-.4 0 .1-.1.1-.2.1.1 0 0 0 0 0m2.2 3.4c0-.1-.1-.1-.2 0v.1l-.8 3.5v.1l.3.3h.2v-.1l.8-3.5v-.1l-.3-.3"/><path fill="none" stroke="#272513" stroke-miterlimit="10" d="M278.8 0v61.2"/><path fill="#2F2A17" d="M267.7 32.7v.2c0 .3-.1.6-.1.9l-.1.7c-.1.7-.2 1.4-.2 2-.1.4-.1.8-.2 1.2l-.1.4c-.1.6-.2 1.2-.4 1.8-.2.7-.4 1.3-.6 2-.1.5-.4 1.2-.6 1.8-.1.4-.3.7-.4 1.1v.1c-.2.6-.5 1.1-.8 1.7-.1.3-.3.6-.4.9-.1.2-.2.5-.4.7-.4.7-.8 1.3-1.2 1.9-.1.2-.2.4-.4.5-.4.7-.9 1.3-1.4 1.9-.2.2-.3.4-.5.5-.2.3-.5.5-.7.8-.3.3-.6.7-.9.9-.1.1-.3.3-.5.4-.2.1-.3.3-.5.4-.4.4-.8.7-1.3 1h-.1l-1.8 1.2c-.6.4-1.3.7-2 1-.6.2-1.1.4-1.7.6-.9.3-1.8.5-2.7.6-.3 0-.6.1-.8.1h-.2c-.3 0-.6 0-1 .1h-.6c-.9 0-1.9-.1-2.8-.3-.6-.1-1.2-.3-1.7-.4l-.2-.1c-.4-.1-.8-.3-1.2-.5-.5-.2-1.1-.5-1.7-.8l-.2-.1c-.7-.3-1.3-.7-1.9-1.2l-1.2-.9c-.5-.4-.9-.7-1.3-1.1-.3-.2-.5-.5-.8-.8l-.2-.2-.9-.9c-.1-.1-.2-.2-.3-.4-.1-.1-.2-.3-.4-.4-.3-.4-.6-.7-.9-1.1l-.1-.2c-.5-.7-.9-1.4-1.4-2.1-.4-.6-.7-1.3-1-1.9l-1.2-2.7c-.1-.3-.2-.6-.3-1l-.1-.2c-.1-.4-.3-.8-.4-1.3v-.1c-.2-.7-.4-1.5-.6-2.3 0-.3-.1-.5-.1-.8-.1-.6-.2-1.3-.3-1.9-.1-.9-.2-1.8-.3-2.6-.1-.7-.1-1.4-.1-2.2v-4.3c0-.3.1-.7.1-1.1.2-1.1.3-2.2.5-3.5.2-1 .4-2 .7-3 .2-.9.5-1.6.7-2.4.2-.7.5-1.4.9-2.3.2-.5.5-1 .7-1.4.4-.7.7-1.3 1-1.8s.6-1 .9-1.4c.4-.6.7-1 1-1.5.2-.3.5-.6.8-.9l.2-.2c.3-.4.7-.8 1.1-1.2.3-.4.7-.7 1.1-1l.2-.2c.4-.4.8-.7 1.2-1.1.3-.3.7-.5 1-.7l.4-.3c.4-.3.9-.6 1.4-.9.6-.3 1.2-.6 1.9-.9l1-.4c.6-.2 1.3-.4 1.9-.5l1.8-.3c.5 0 1-.1 1.6-.1.7 0 1.3.1 2 .2h.2c.9.1 1.8.3 2.6.6.9.3 1.8.7 2.7 1.1.4.2.8.5 1.2.7l.4.2c.2.1.4.2.6.4l.2.1c.3.2.5.4.8.6.5.4.9.7 1.4 1.1l.3.8.1.1.1.1.4.4.8.8c.3.3.6.7.8 1 .4.5.7.9 1 1.3.2.2.3.5.5.7l.1.1c.2.3.3.5.5.8l.6.9c.5.8.9 1.5 1.3 2.3l.2.5.9 2.1.6 1.8.1.3c.2.5.3 1 .5 1.6.1.2.1.4.1.6l.1.7c.1.3.1.7.2 1 0 .2.1.4.1.7l.1.6c0 .2.1.5.1.7.1.5.1 1 .2 1.5 0 .4.1.7.1 1.1 0 .4.1.8.1 1.1v2.4c0 .4 0 .7-.1 1.1.2.2.2.3.2.4m.7-5c0-.3-.1-.5-.1-.8s0-.6-.1-.8V26c-.1-.7-.2-1.3-.3-2-.1-.8-.3-1.8-.6-2.9-.2-.9-.5-1.9-.8-2.8-.1-.2-.2-.4-.2-.7-.1-.3-.2-.7-.4-1-.1-.3-.2-.6-.3-.8l-.1-.2c-.1-.3-.2-.6-.4-.8s-.3-.5-.4-.8l-.6-1.2c-.2-.4-.4-.8-.7-1.2l-.1-.1c-.2-.3-.4-.7-.6-1l-.2-.3c-.4-.6-.7-1.1-1.2-1.6-.1-.1-.2-.3-.4-.4-.3-.4-.6-.7-.9-1.1l-.7-.7c-.2-.2-.4-.3-.5-.5-.3-.3-.7-.6-1-.9l-.3-.2c-.4-.4-.8-.7-1.3-1-.4-.3-.8-.5-1.2-.8l-.5-.3c-.2-.1-.4-.2-.5-.3-.5-.2-1.1-.5-1.7-.8-.8-.4-1.6-.6-2.4-.9-.7-.2-1.3-.3-2-.4h-.3c-.2 0-.4-.1-.5-.1h-1.4c-.6 0-1.2 0-1.7.1-.5 0-.9.1-1.4.2h-.2c-.9.2-1.7.4-2.5.7-.7.3-1.4.5-2 .9-.5.2-.9.5-1.4.8-.4.2-.8.5-1.3.9-.3.2-.6.5-1 .8-.4.3-.7.6-1.1.9l-.1.1c-.2.2-.5.4-.7.7-.1.2-.3.3-.5.5s-.4.5-.6.7c-.1.1-.2.3-.4.4l-.4.4-.2.2L229 10l-.3.4-.6.9c-.2.4-.5.7-.7 1.1-.2.4-.5.9-.7 1.3l-.1.3c0 .1-.1.2-.1.2 0 .1-.1.2-.1.3-.3.6-.6 1.3-.9 2-.4.9-.7 1.8-.9 2.7-.3 1-.5 1.8-.7 2.7l-.3 1.8v.1c-.1.4-.1.8-.2 1.2-.1.5-.1 1-.2 1.5 0 .3-.1.6-.1 1v.3c0 .3-.1.6-.1.9v3.8c0 .8.1 1.5.2 2.2.1.9.2 1.8.3 2.5l.3 1.5v.2c.1.3.1.7.2 1.1l.1.4c.2.7.4 1.5.6 2.2.3.8.6 1.7.9 2.4.2.5.4 1.1.6 1.5.1.2.1.3.2.5.2.5.5 1 .7 1.4.1.2.3.5.4.7.2.3.3.5.5.8.5.8 1.1 1.6 1.7 2.4l.3.3c.2.2.4.5.5.7.3.3.6.6.9 1s.8.8 1.3 1.3l.1.1c.5.4.9.8 1.4 1.2.5.4 1.1.8 1.7 1.2.5.3 1.1.6 1.5.9.4.2.7.4 1.1.5.5.2.9.4 1.4.5.7.3 1.5.5 2.2.6.4.1.8.1 1.2.2l.4.1h2.7c.2 0 .3 0 .5-.1h.4c.8-.1 1.5-.2 2.2-.4.9-.2 1.8-.5 2.6-.9l1.8-.9c.6-.3 1.2-.7 1.8-1.1.1-.1.1-.1.2-.1s.2-.1.2-.2l.1-.1c.2-.2.5-.4.7-.6.3-.2.6-.5.9-.8l.4-.3c.1-.1.2-.2.3-.2.2-.2.4-.3.6-.5l.6-.6.1-.1.5-.5c.2-.2.4-.4.6-.7.5-.6.9-1.1 1.3-1.8l.1-.1c.3-.4.6-.9.9-1.4l.3-.4c0-.1.1-.1.1-.2l.2-.3c.1-.3.3-.5.4-.8.2-.5.5-.9.7-1.4.2-.4.4-.9.6-1.3l.1-.3c.1-.3.3-.7.4-1 .3-.9.6-2 1-3.1.1-.4.2-.9.3-1.3 0-.2.1-.4.1-.6.2-1 .4-2.1.6-3.4.1-.7.2-1.5.2-2.2 0-.6.1-1.1.1-1.7v-.8c.3-.9.2-2 .1-3"/><path fill="#2F2A17" d="M247.2 2.4c.4 0 .9.1 1.3.2.3.1.7.1 1.1.2.9.3 1.8.6 2.7 1 .4.2.8.4 1.3.7l.3.2c.3.2.6.3.9.5.9.7 1.9 1.4 2.7 2.1.3.3.6.5.8.7.2.2.3.4.5.6l.3.3.1.1.2.2c.3.3.6.8.9 1.2l.1.1c.2.3.5.6.7.9.4.5.7 1.1 1 1.6v.1c.2.3.4.6.5.9.1.2.2.5.4.7.1.1.2.3.2.4.2.3.3.6.4.9l.2.4.3.6c.2.5.2 1 0 1.5 0 .2-.1.3-.2.5-.2.2-.5.4-.8.4-.3 0-.6-.1-.8-.4-.1-.3-.1-.6.1-.9.1-.1.2-.2.4-.1s.2.1.2.3v.2h.1c.2 0 .3 0 .5-.1.1-.1.1-.3.1-.4 0-.6-.5-1-1.1-1-.5 0-1 .4-1.1.8-.2.5 0 1 .3 1.4.2.3.5.5.8.6.2.1.5.1.7 0h.1c.5 0 .9-.3 1.1-.7.3-.4.4-.9.4-1.4v-.6l-.3-.9v-.1c-.3-.6-.6-1.3-.9-1.9l-.7-.2c-.1-.3-.3-.5-.4-.8l-.3-.6c-.4-.7-.9-1.4-1.3-2.1-.1-.2-.3-.4-.4-.6-.2-.2-.3-.5-.5-.7-.4-.4-.8-1-1.3-1.4-.5-.5-1.1-1.1-1.7-1.6-.5-.4-1-.8-1.5-1.1l-.2-.1c-.4-.3-.7-.5-1-.7-.4-.2-.8-.4-1.1-.6-.3-.2-.7-.4-1.1-.5-.6-.2-1.2-.5-1.7-.7l-1.2-.3h-.1c-.7-.2-1.5-.3-2.2-.3h-1.7c-.4 0-.8 0-1.3.1-.2 0-.5.1-.7.1-.4.1-.8.1-1.3.2l-1.8.6c-.8.3-1.5.7-2.2 1.1l-.2.1-.9.6c-.4.2-.7.5-1.1.8l-.2.1c-.2.2-.4.3-.6.5l-.4.4-.3.3-.3.3c-.2.1-.3.3-.5.5-.3.4-.7.7-1.2 1.2-.1.1-.2.3-.4.4-.1.1-.2.3-.3.4-.3.4-.7.9-1 1.3-.1.2-.2.3-.3.5-.2.3-.4.7-.6 1l-.6.9c-.2.4-.5.8-.7 1.2-.1.1-.1.3-.2.4-.4.7-.7 1.5-.8 2.2-.1.4-.1.9-.1 1.3s.1.8.4 1l.1.1.1.1c.1.1.2.2.3.2 0 0 .1 0 .1.1.1.1.3.1.4.1h.3c.1 0 .3 0 .4-.1.1-.1.3-.2.4-.3.2-.1.3-.3.5-.5.2-.4.2-.7.2-1.1 0-.6-.5-1-1-1-.3 0-.7.1-.9.4-.2.3-.3.7-.2 1.1 0 .1.1.3.3.3.1 0 .3 0 .4-.1.1-.1.1-.2.1-.4 0-.1 0-.2.1-.3.1-.1.2-.1.3 0l.1.1c.2.2.3.4.2.7 0 .3-.2.5-.5.7-.3.1-.7.1-1-.2-.3-.2-.5-.6-.4-1v-.1c0-.6.2-1.1.4-1.6 0-.1.1-.2.1-.3 0-.1.1-.2.1-.3.3-.7.7-1.4 1-2 .1-.1.1-.2.2-.4 0-.1.1-.1.1-.2.1-.1.1-.2.2-.4s.3-.5.4-.7c.3-.5.7-1.1 1.1-1.6.4-.5.7-1 1.2-1.5l.6-.6 1.1-1.1c.3-.2.5-.5.8-.7l.2-.2c.2-.2.5-.4.8-.6.4-.3.9-.6 1.3-.9l.2-.2c.3-.2.6-.4.9-.5.6-.3 1.3-.6 1.9-.9.9-.4 1.8-.6 2.8-.8.4-.1.7-.1 1.1-.1h.2c.3 0 .5-.1.8-.1h.9c.1-.2.5-.2.8-.1m-2.5 52.8c-.5-.4-1.2-.4-1.7 0-.5.3-.8.9-.7 1.5 0 .4.4.7.8.7.3 0 .5-.1.6-.4.2-.3.2-.6 0-.8-.1-.2-.3-.2-.5-.1-.1 0-.1.1-.2.1.1-.2.2-.3.3-.4.2-.1.5-.1.7 0 .4.3.5.8.4 1.3v.1c-.1.2-.2.4-.4.5l-.1.1c-.2.1-.4.2-.6.2-.5.1-.9.2-1.4.1h-.1c-.3 0-.7-.1-1-.2l-1.5-.6-.3-.1c-.3-.1-.6-.3-.9-.4-.3-.2-.5-.3-.8-.5-.2-.1-.4-.3-.6-.4-.7-.4-1.3-.9-1.9-1.4-.2-.2-.4-.4-.6-.5l-.2-.2-.2-.2c-.2-.1-.3-.3-.5-.5-.1-.1-.2-.2-.3-.4l-.2-.2c-.1-.2-.3-.3-.4-.5-.3-.3-.6-.7-.9-1.1-.5-.6-.9-1.2-1.3-1.9v-.1c-.4-.6-.8-1.3-1.1-2l-.3-.6c-.1-.2-.2-.5-.4-.7-.3-.7-.6-1.3-.8-1.9s-.4-1.1-.6-1.6c-.1-.3-.2-.7-.3-1l-.2-.6-.3-1.2c-.2-.7-.3-1.4-.4-2.2-.1-.5-.2-1.1-.3-1.8-.1-.5-.1-1-.1-1.5-.1-.7-.1-1.3-.1-2v-1.9c0-.5 0-1 .1-1.4V26c.1-.7.2-1.5.4-2.2.1-.5.3-1.1.5-1.7.1-.4.4-.7.8-1 .3-.3.8-.3 1.2 0 .1.1.2.2.3.4.1.4 0 .8-.3 1.1-.1.1-.2.1-.3.1-.1 0-.2-.1-.2-.2v-.2c.1-.1.2-.3.1-.5-.1-.1-.4-.2-.5-.1h-.1c-.2.1-.3.3-.3.5v.4c-.1.4.2.7.5.9.5.3 1.1.2 1.4-.2.2-.2.3-.4.4-.6.1-.4.2-.7 0-1.1 0-.2-.1-.4-.2-.6-.2-.4-.6-.6-1-.6-.3-.1-.6 0-.8.1-.3.2-.6.4-.8.6-.1.1-.3.3-.3.5-.2.4-.3.9-.5 1.3-.2.6-.3 1.2-.4 1.8-.1.3-.1.6-.1.9v.2c0 .2 0 .4-.1.6-.1.6-.1 1.2-.2 1.8 0 .8-.1 1.7-.1 2.5v1.9c0 .3 0 .6.1.9 0 .2 0 .4.1.6v1.4c0 .2.1.4.1.6s.1.4.1.6c.1.9.3 1.8.5 2.7.2 1 .5 1.9.8 2.8.2.8.4 1.4.7 2 .2.5.5 1.1.7 1.6.1.2.2.4.3.7 0 .1.1.1.1.2s0 .1.1.1c.3.6.6 1.3 1 1.9.1.2.3.4.4.7.2.3.4.7.6 1l.9 1.2.1.1c.2.2.3.4.5.6l.2.3c.3.3.6.7.9 1 .2.2.4.4.7.6l.2.2c.3.3.6.6 1 .9l.1.1c.2.2.5.4.7.6.4.3 1 .7 1.6 1.1l1.5.9c.5.3 1 .5 1.6.7.3.1.7.2 1 .3.3 0 .6.1 1 .1h.1c.6 0 1.3-.2 1.8-.4.3-.1.5-.3.7-.5.4-.5.5-1.1.3-1.6-.1-.9-.3-1.2-.6-1.4M264 21.8zm2.6 4.3c-.1-.8-.2-1.7-.4-2.5-.1-.5-.2-.9-.3-1.4l-.1-.5c0-.1-.1-.2-.1-.3-.2-.4-.5-.7-.8-.9-.3-.3-.8-.4-1.2-.3-.1 0-.1 0-.2.1h-.1c-.6.1-1.1.6-1.2 1.2-.2.6 0 1.2.4 1.6.4.3.9.4 1.3.2.6-.3.8-.9.5-1.5v-.1c0-.1-.1-.2-.2-.2-.1-.1-.2-.1-.4-.1-.1 0-.2 0-.3.1-.1.1-.1.3.1.5v.1c0 .2-.2.4-.4.4h-.1c-.3-.1-.5-.4-.6-.7v-.4c.1-.2.3-.4.6-.5.2-.1.4-.1.6-.1.5.1.9.3 1.2.7.2.3.3.6.4 1 0 .3.1.5.2.8.1.3.1.6.2.9.1.6.2 1.3.3 1.9l.1.4c0 .3.1.7.1 1.1V33c0 .2 0 .5-.1.7 0 .3-.1.5-.1.8 0 .5-.1 1.1-.2 1.6 0 .3-.1.5-.1.8 0 .4-.1.8-.2 1.1 0 .1-.1.2-.1.4v.2c-.1.5-.2.9-.3 1.4s-.2.9-.4 1.3l-.2.5c0 .1 0 .1-.1.2l-.2.7c-.2.6-.4 1.1-.6 1.7-.2.5-.4.9-.6 1.4-.2.3-.3.6-.5.9l-.2.3c-.3.5-.6 1.1-.9 1.6l-.6.9-.2.2c-.2.3-.5.7-.7 1l-1.5 1.8c-.3.3-.5.6-.8.9-.4.4-.8.7-1.2 1.1l-.1.1c-.6.5-1.2.9-1.8 1.4-.5.3-1 .7-1.6.9-.4.2-.9.5-1.3.7l-.1.1c-.2.1-.4.1-.5.2-.2.1-.4.1-.6.2-.1 0-.3.1-.4.1-.4.1-.9.1-1.4.1-.4 0-.8-.1-1.2-.3-.3-.1-.6-.3-.7-.7-.2-.5 0-1 .4-1.3.1-.1.3-.1.4-.1.2 0 .4.1.5.3l.1.1-.1-.1c-.2-.1-.4-.1-.5.1-.2.3-.2.6-.1.9.2.3.5.4.8.3.4 0 .6-.4.6-.7v-.5c-.1-.4-.2-.7-.5-.9-.2-.2-.4-.3-.7-.3-.5-.1-1.1.1-1.4.5-.3.4-.4 1-.3 1.5v.1c0 .1 0 .2.1.3.2.5.7.9 1.2 1l.2.1c.1 0 .3.1.4.1.4.1.7.1 1.1.1h.5c.5-.1 1.1-.2 1.6-.3.2 0 .4-.1.5-.2.2-.1.4-.2.5-.3s.4-.2.6-.3c.7-.3 1.3-.7 1.9-1.1.3-.2.7-.5 1-.7.6-.4 1.1-.9 1.6-1.3l.3-.3c.1-.1.2-.2.4-.3l.9-.9c.1-.1.2-.2.3-.4.2-.2.4-.5.6-.7l.3-.3c.1-.1.1-.2.2-.3.2-.2.3-.4.5-.6l.6-.9.1-.2c.1-.2.3-.4.4-.6.1-.2.3-.5.4-.7l.1-.2.3-.6c.2-.4.5-.9.7-1.3.3-.7.6-1.4.9-2 .3-.7.6-1.5.9-2.4.2-.4.3-.9.4-1.4v-.1c.1-.5.2-1 .4-1.6.1-.6.3-1.2.4-1.7 0-.2.1-.4.1-.5v-.3l.1-.4c0-.3.1-.6.1-.9 0-.2 0-.4.1-.6v-.8c0-.3.1-.6.1-1 0-.5.1-1.1.1-1.6v-3.2c0-.5-.1-1.2-.2-1.7"/><path fill-rule="evenodd" clip-rule="evenodd" fill="#2F2A17" d="M257.1 36.2c-.2.2-.2.2 0 .3v-.3m-.1-10.8c-.3.3-.6.6-.8 1 .4-.3.6-.6.8-1m-7.1-3.5c.2-.4.5-.7.8-1l.3.3c.1.1.2.2.3.2.3 0 .4-.2.4-.5v-.2c-.1-.4-.5-.5-.9-.4 0 0-.1 0-.1.1-.4.4-.7.9-.8 1.5m2.2 8.1c.1-.1.1-.2.2-.3.2-.3.5-.4.8-.2 0 0 .1 0 .1.1.1.1.1.1.2.1.3 0 .5-.1.6-.4.2-.3.1-.7-.2-.9-.1 0-.2-.1-.2-.1-.3 0-.5.1-.7.2-.2.1-.3.3-.4.4-.2.3-.3.7-.4 1.1m1.7 9.8c.1-.2.3-.4.5-.6.2-.2.5-.4.8-.4.3-.1.3-.1.5.2v.1c.1.1.3.2.4.2.1 0 .2-.2.2-.3.1-.3 0-.6-.2-.8-.2-.2-.6-.3-.9-.2-.8.2-1.3 1-1.3 1.8m-14.2-9.4v-.2c-.1-.5-.3-1.1-.6-1.5-.1-.2-.3-.3-.5-.4-.4-.2-.8-.1-1 .3 0 0 0 .1-.1.1-.1.3.1.7.4.8h.2c.1 0 .3-.1.3-.2.1-.2.3-.2.4 0 .2.2.3.5.5.8.2 0 .3.1.4.3m2.3-8.2v-.3c-.1-.6-.3-1.2-.7-1.7-.1-.2-.4-.3-.6-.3-.4 0-.7.3-.7.7 0 .4.3.7.7.8h.3c.2-.1.3 0 .4.1.2.3.4.5.6.7m-4.3 19.2c.1-.2.1-.3.1-.5 0-.4 0-.8-.1-1.2-.1-.5-.3-.9-.5-1.3s-.6-.7-1-.7c-.5-.1-.8.2-.9.7 0 .2 0 .4.2.6.2.2.5.2.8.1.1-.1.3-.1.4.1.2.2.4.5.5.8.1.4.2.7.3 1.1.2 0 .2.1.2.3m10-26.6c0-.1 0-.2-.1-.3-.3-.3-.7-.4-1.1-.5-.4-.1-.9 0-1.3 0-.3 0-.7.2-.9.4-.1.1-.2.1-.2.3 1.1.8 2.5.9 3.6.1m-1.9-5c0-.1.1-.1.1-.2.2-.3.5-.6.9-.7.2-.1.5-.1.7-.1.2 0 .3-.1.3-.3 0-.5-.3-.9-.7-1.1h-.1c-.1-.1-.1-.1-.1-.2 0-.2-.1-.3-.1-.5 0-.5-.3-.9-.6-1.2-.2-.3-.6-.3-.9 0-.1.1-.2.3-.3.5 0 .4-.2.7-.5.8-.3.2-.5.5-.6.9-.1.2 0 .2.2.3.4.1.7.3 1 .6.2.2.3.4.4.7 0 .2.2.4.3.5m-10.9 8.9c.1 0 .2 0 .3-.1.2-.1.3-.1.5-.2h.9c.4 0 .8.2 1.2.4.3.2.5.4.7.6.3.3.7.5 1.1.5.3 0 .6-.2.7-.5.2-.3.2-.7.1-1-.2-.6-.5-1.2-.7-1.8-.1-.4-.2-.8-.1-1.2.1-.4.2-.9.4-1.3V14h-.1c-.4.1-.6.3-.8.7 0 .2-.2.3-.4.4-.1 0-.2.1-.3.1 0 0-.1 0-.1.1-.2.2-.2.5-.2.8.1.2.1.3.1.5s.2.4.4.5c.5.4.8.9.9 1.5 0 .1 0 .2-.1.2s-.1 0-.2-.1c-.4-.4-.7-.9-.9-1.4 0-.1-.1-.2-.2-.2-.5-.3-1-.3-1.5-.1-.2.1-.4.2-.4.4 0 .1-.1.2-.3.2-.4.3-.8.6-1 1.1m1.7 3.7c-.5.1-1 .4-1.3.8-.4.4-.6 1-.6 1.6 0 .2.1.5.3.6.3.2.7.5 1 .7.4.4.7.8.9 1.2.1.1.1.2 0 .3-.1.1-.2.1-.3 0-.1 0-.2-.1-.3-.2-.4-.3-.8-.6-1.1-1l-.6-.9c-.1-.2-.3-.2-.4-.2-.5 0-.9.5-.9 1v.1c0 .1 0 .2-.1.3-.2.1-.4.2-.6.4-.2.2-.3.4-.4.7h.2c.4-.2.8-.3 1.2-.4.4-.1.8 0 1.1.1.5.1.9.4 1.3.7.4.4 1.1.3 1.4-.1.3-.4.3-.9 0-1.3s-.6-.8-.8-1.2c-.2-.5-.3-1-.3-1.5v-.4c0-.3.1-.5.2-.8 0-.2 0-.3.1-.5m20.5-3.3V19c-.2-.4-.6-.7-1-.9-.1 0-.2-.1-.3-.3-.1-.2-.2-.4-.4-.4-.4-.1-.9-.1-1.4.1-.1 0-.2.1-.2.2-.3.5-.6 1-1 1.5-.1.1-.1.1-.2.1s-.1-.2-.1-.2c.1-.6.4-1.1.9-1.4.2-.1.3-.3.4-.5.1-.2.1-.5.2-.7.1-.3-.2-.7-.5-.8-.1 0-.2-.1-.2-.1-.1 0-.2-.1-.2-.2-.1-.3-.3-.5-.6-.7-.1 0-.2-.1-.3-.1v.2c.2.4.3.9.3 1.3 0 .7-.1 1.4-.5 2-.2.4-.3.8-.4 1.2-.1.4.1.9.5 1.1.5.3 1.1.1 1.5-.3.2-.2.4-.4.7-.6.4-.3 1-.5 1.5-.5.4 0 .8.1 1.1.2 0-.1.1-.1.2-.1m.4 6c0 .1-.1.2-.1.3 0 .1 0 .2-.1.2-.2.6-.7 1-1.3 1.2h-.2v-.2c.2-.4.5-.8.8-1.1.2-.2.4-.3.5-.5.1-.1.1-.1.1-.2 0-.5-.1-.9-.4-1.4-.3-.5-.7-.8-1.2-1.1-.1-.1-.2-.1-.4-.1.2.5.3 1.1.3 1.7 0 .9-.4 1.8-1.1 2.4-.4.3-.5.9-.2 1.3.1.3.4.5.8.5.3 0 .5-.1.7-.2l.6-.3c.4-.2.8-.3 1.3-.3s1.1.1 1.6.3c.1 0 .2 0 .2.1-.1-.5-.4-.8-.8-1-.2-.1-.4-.3-.4-.5.2-.6-.2-1-.7-1.1m-24.6 7.6c-.2.2-.4.5-.4.9v.1c.1.4.3.7.6 1 .2.2.5.3.7.5.4.3.7.8.9 1.3.1.2.1.4.2.7 0 .1 0 .3-.1.4-.2.1-.5 0-.6-.2 0-.1 0-.3-.1-.4 0-.2-.1-.5-.2-.7-.1-.3-.2-.5-.4-.7-.2-.2-.4-.4-.6-.5-.2-.1-.4-.2-.6-.2-.3 0-.5.1-.7.3-.2.2-.5.5-.3.9v.1c0 .2 0 .3-.3.4-.2 0-.3.1-.5.1-.5.2-.8.6-1 1-.1.3-.2.6-.2.9.2-.1.3-.2.4-.4.5-.5 1.2-.8 1.9-.8.9-.1 1.8.2 2.5.7.2.2.6.3.9.2.1-.1.2-.1.2-.2.3-.4.4-.9.3-1.4-.1-.3-.3-.6-.5-.9-.5-.5-.9-1.1-1-1.7-.1-.2-.1-.5-.1-.7 0-.4 0-.9.2-1.3.1-.2.2-.5.3-.7-.3 0-.6.1-.9.3-.4.4-.6 1-.4 1.5 0-.3-.1-.4-.2-.5m24.4-1.9c0 .2.1.4.1.5.1.3.1.7.1 1v.5c0 .1 0 .2-.1.4-.1.3-.3.6-.4.9-.2.4-.4.8-.7 1.1-.4.5-.5 1.2-.2 1.7s.9.8 1.5.6c.3-.1.5-.2.8-.4.2-.2.4-.3.7-.4.4-.1.8-.1 1.2 0 .4.1.8.3 1.1.6l.3.3v-.3c0-.2-.1-.5-.2-.7-.2-.4-.6-.6-1-.8-.2-.1-.2-.1-.2-.4.1-.2 0-.5-.3-.6-.1 0-.1-.1-.2-.1-.5-.2-1.1-.1-1.5.2-.5.3-.8.8-.9 1.3 0 .1 0 .2-.1.2-.1.2-.3.2-.5.2-.2-.1-.3-.2-.2-.4 0-.1 0-.1.1-.2.3-.5.7-.9 1.1-1.2.3-.2.5-.4.8-.7.4-.6.5-1.4.2-2.1 0-.1-.1-.2-.1-.3-.2-.4-.6-.8-1-1-.1.1-.3 0-.4.1m-7.1-21.7c0-.1 0-.1-.1-.1-.5-.4-1.2-.5-1.8-.2-.2.2-.5.2-.7.1h-.1c-.6.1-1.1.4-1.4 1-.1.1-.1.3 0 .4.1.2.2.4.2.6.1.4 0 .8-.2 1.1-.1.1-.2.1-.3.1 0 0-.1 0-.1-.1-.1-.2-.1-.3-.2-.5-.1-.3 0-.6.1-1 .1-.2 0-.4-.1-.6 0-.1-.1-.1-.1-.2-.2-.3-.5-.5-.8-.7-.5-.3-1-.5-1.6-.5-.5 0-1.1.2-1.5.5l-.3.3c.1 0 .3.1.4.1.7 0 1.4.3 1.9.9.4.4.7 1 .7 1.6 0 .3.1.6.3.9.3.7 1.2 1 1.9.7.3-.1.6-.4.7-.7.1-.3.1-.5.1-.8 0-.5.2-1 .4-1.4.2-.3.5-.6.8-.8.2-.2.4-.3.6-.4.5-.2.8-.2 1.2-.3m4 41v-.3c-.1-.5-.1-1-.2-1.5 0-.3-.1-.7-.1-1-.1-.4-.1-.8-.2-1.2s-.1-.8-.1-1.2c-.1-.4-.1-.8-.2-1.1-.1-.8-.3-1.7-.4-2.5-.1-.4-.1-.8-.2-1.3-.1-.4-.1-.8-.2-1.2-.1-.4-.2-.9-.3-1.3-.1-.4-.1-.7-.2-1.1-.1-.3-.1-.7-.2-1-.1-.5-.1-1-.2-1.5-.1-.8-.3-1.6-.5-2.5 0-.2-.1-.4-.1-.6-.1-.2-.1-.5-.1-.7-.1-.3-.2-.7-.2-1l-.3-1.5c-.1-.7-.3-1.3-.4-2-.1-.7-.3-1.3-.6-2-.4-1-.8-1.9-1.3-2.8-.2-.3-.4-.6-.7-1-.2-.3-.5-.7-.8-1-.1-.1-.2-.3-.4-.3-.1 0-.2-.2-.2-.3v-2c0-.1-.1-.2-.3-.2-.1 0-.2 0-.2.2v1.9c0 .2-.1.3-.2.4-.1 0-.2.1-.3.2-.4.5-.7 1-1.1 1.5-.2.2-.3.5-.5.7l-.3.6c-.4.6-.7 1.3-.9 1.9-.2.7-.5 1.4-.6 2.1-.2 1-.5 1.9-.7 2.9-.3 1.1-.5 2.2-.7 3.3-.1.4-.2.8-.3 1.3l-.3 1.5c-.1.7-.3 1.4-.4 2-.1.4-.1.9-.2 1.3-.2.9-.3 1.8-.5 2.6-.1.6-.2 1.1-.3 1.7-.1.4-.1.8-.2 1.2-.1.7-.2 1.4-.3 2-.1.4-.1.9-.2 1.3-.1.7-.2 1.3-.3 2-.1.5-.2 1-.2 1.5 0 .2 0 .2.2.2.9-.1 1.9-.3 2.8-.4.8-.1 1.6-.1 2.4-.2.3 0 .6 0 .9-.1.4 0 .8-.1 1.2-.1h4.2c.5.1 1 0 1.5.1.3 0 .7 0 1 .1h.5c.2 0 .4.1.5.1.5.1 1 .1 1.6.2 0 .1.1.1.3.1m-23.2-14.2v-.3c0-.3.1-.6.3-.8.2-.3.5-.4.9-.5h.1l.1-.1c0-.1 0-.1-.1-.2-.1-.3-.1-.6 0-.9.1-.3.2-.5.5-.7.1-.1.2-.2.2-.3 0-.5.2-.9.6-1.2.1-.1.2-.1.3-.2.3-.1.6-.2.9-.1.1 0 .2.1.1.2 0 .1-.1.2-.1.2-.2.3-.3.6-.4 1-.2.7-.1 1.4.2 2.1.2.4.5.8.9 1.2.4.4.6 1 .5 1.6 0 .1 0 .3-.1.4.2 0 .4.1.7.1.4.1.8.4.9.7.2.4.4.8.4 1.2 0 .1.1.2.1.3.2-.1.1-.2.2-.3l.3-1.5.3-1.8c.1-.6.2-1.1.4-1.7.1-.6.2-1.2.4-1.7 0-.1.1-.2.1-.3.1-.4.1-.9 0-1.3s-.3-.7-.5-1l-.1-.1c-.3.1-.6.2-1 .1-.3-.1-.5-.3-.6-.6-.1-.2-.1-.3-.1-.5h-.1c-.2.1-.5.1-.7.1-.3 0-.5-.1-.8-.3l-.9-.6c-.4-.2-.9-.2-1.3-.2-.5.1-.9.3-1.3.5l-.1.1c-.2.1-.3 0-.3-.1 0-.5.1-1 .4-1.4l.5-.5c.1-.1.2-.2.2-.3 0-.7.5-1.2 1.2-1.2h.2c0-.2 0-.4.1-.7.1-.4.2-.8.5-1.2.3-.5.8-.8 1.3-1 .2-.1.4-.1.6-.1.2 0 .2.1.2.2-.1.2-.2.4-.3.7-.3.7-.3 1.5 0 2.2.1.3.3.6.4.8.1.2.2.3.4.5.3.3.5.7.4 1.1v.3h.2c.5-.1 1 .1 1.3.6.1.2.3.5.4.8.1.2.1.4.2.6l.1.3h.1c0-.1.1-.1.1-.2.1-.5.3-1.1.4-1.6.2-.7.3-1.5.5-2.2.1-.6.3-1.1.4-1.7.1-.3.2-.6.3-.8.1-.3.1-.6-.1-.9-.1-.2-.1-.3-.2-.5 0-.1-.1-.1-.2-.1-.2 0-.5 0-.7-.1-.1 0-.2-.1-.2-.2-.1-.1-.3-.2-.4-.4-.1-.2-.2-.5-.1-.8v-.2h-.3c-.4 0-.8-.1-1.1-.4-.2-.3-.5-.5-.8-.7-.2-.1-.4-.2-.7-.3-.4-.1-.9-.1-1.4.1-.2.1-.5.3-.7.4l-.1.1c-.1.1-.2 0-.2-.1 0-.6.1-1.1.5-1.5.2-.2.4-.4.7-.5.1 0 .2-.1.3-.3.1-.2.2-.3.3-.4.5-.2 1-.3 1.5-.1h.1v-.2c0-.1-.1-.2-.1-.4-.1-.5.1-1 .5-1.2.1 0 .2-.1.3-.1.1 0 .2-.1.3-.2.2-.6.7-.7 1.2-.9.1-.1.3 0 .4.2v.1c-.1.1-.2.3-.2.4-.4.8-.4 1.8-.1 2.6.2.4.4.9.5 1.3.1.4.1.8 0 1.1 0 .1 0 .1-.1.2h.2c.4 0 .8.2 1 .6.3.5.5 1 .5 1.6v.1c.1-.1.2-.2.3-.4.2-.4.4-.9.7-1.3.3-.5.7-1 1-1.4.2-.2.4-.5.7-.8.2-.2.3-.4.2-.6v-1.7c-.1 0-.2-.1-.4-.1-.3-.1-.6-.2-.8-.4-.3-.3-.3-.7 0-1 .2-.2.4-.3.7-.4.1 0 .3-.1.4-.2 0-.1-.1-.1-.1-.1-.3-.2-.6-.6-.8-.9-.1-.3-.1-.5-.2-.8-.1-.7-.5-1.3-1.1-1.7-.6-.4-1.3-.6-2-.4h-.2c-.1 0-.2-.1-.1-.3.1-.2.3-.3.5-.4.3-.3.7-.5 1.1-.6.1 0 .1-.1.2-.1.3-.2.6-.3 1-.3.2 0 .3 0 .3-.3.1-.4.3-.7.5-1 .1-.1.2-.1.3-.2.2-.1.3-.3.4-.5 0-.2.1-.3.2-.5.2-.4.7-.7 1.1-.6.2.1.4.2.5.3.5.4.7.9.7 1.5 0 .1.1.3.2.3.4.2.7.5.7 1 0 .1 0 .3.1.4h.2c.9-.3 1.8.1 2.2.9.1.1 0 .3-.1.3s-.4.1-.6.1c-.5.1-1 .4-1.4.8-.5.5-.7 1.1-.8 1.8 0 .5-.2.9-.6 1.2-.1.1-.2.2-.4.3.2.1.3.2.5.2.2.1.4.2.5.4.2.3.2.7-.1.9h-.1c-.2.2-.5.3-.7.3-.2.1-.3.1-.3.3v1.7c-.1.2 0 .4.2.5h.1s.1 0 .1.1c.7.8 1.3 1.6 1.8 2.5.2.3.3.6.5.9 0 .1.1.1.2.3 0 0 .1-.1.1-.2s.1-.2.1-.3c.1-.3.2-.7.5-.9.2-.3.5-.5.9-.5h.2c0-.2-.1-.3-.1-.5 0-.3 0-.6.1-.8.1-.4.3-.7.4-1.1.3-.5.4-1.1.4-1.6s-.1-1-.4-1.4c-.1-.1-.1-.2-.1-.3 0-.1 0-.2.1-.2h.1c.4 0 .7.1 1 .4.2.2.4.4.5.6 0 .1.1.1.1.1.3 0 .5.2.6.4.2.3.2.6.2.9 0 .1-.1.3-.1.4v.2h.3c.5-.1.9 0 1.3.1.2.1.3.2.4.4 0 .1.1.2.2.2.4.1.7.4.9.7.2.2.3.5.4.8 0 .2 0 .4.1.5 0 .1 0 .1-.1.2h-.2c-.1 0-.2-.1-.2-.2-.5-.4-1.1-.6-1.8-.5-.4 0-.8.2-1.1.5l-.3.3c-.4.5-1 .7-1.6.6h-.1c0 .2 0 .3-.1.5-.1.4-.5.7-.9.6h-.1c-.2 0-.3-.1-.5-.2-.1.2-.3.4-.3.6-.1.6-.1 1.2.2 1.7l.6 2.4c.1.5.2 1.1.3 1.6l.3 1.5c0 .2.1.5.2.7.2-.4.3-.8.5-1.1l.3-.6c.1-.2.3-.3.5-.3l.7-.2v-.1c-.2-.6 0-1.3.5-1.7.3-.3.6-.7.8-1.1.2-.5.3-1.1.3-1.7-.1-.4-.2-.8-.4-1.2-.1-.2 0-.3.2-.3.4 0 .8.2 1.1.4.4.3.7.6.9 1 .1.3.2.6.2.9 0 .2 0 .4.1.6h.1c.3 0 .6.2.8.5.1.1.1.3.2.4v.2c0 .2.1.4.3.5.5.3.9.8 1 1.4v.6c0 .2-.2.2-.3.1-.2-.1-.4-.3-.6-.4-.6-.3-1.2-.4-1.9-.3-.4.1-.7.2-1 .4-.4.3-.9.4-1.3.4h-.2c.2.6-.2 1.2-.8 1.4-.4.1-.8 0-1.1-.3h-.1c-.1.3-.3.6-.4.9-.1.2-.1.5-.2.7 0 .4 0 .8.1 1.2.1.5.2 1.1.3 1.6.1.4.2.9.3 1.3.1.6.2 1.3.4 1.9.1.6.2 1.1.3 1.7 0 .1.1.2.1.4h.1c0-.1.1-.3.1-.4.2-.7.7-1.3 1.4-1.5.2 0 .4-.1.6 0h.3c0-.1-.1-.1-.1-.2-.3-.4-.4-1-.2-1.4 0-.2.1-.4.2-.6.1-.3.3-.5.5-.7.3-.5.6-1 .8-1.6.2-.4.2-.8.1-1.1l-.3-1.2c-.1-.2 0-.3.2-.3s.4 0 .6.1c.8.3 1.4.9 1.6 1.8.1.7 0 1.4-.3 2v.1h.2c.3 0 .6 0 .8.1.4.1.7.5.7.9v.2s.1 0 .1.1c.2.1.4.2.6.4.2.2.4.5.5.9.1.3.1.6 0 .9-.1.3-.2.3-.4.1-.2-.2-.4-.4-.7-.6-.5-.3-1.2-.4-1.8-.2-.3.1-.6.3-.9.6-.5.4-1.1.4-1.6.2h-.1c0 .1.1.2.1.2.2.5.1 1-.3 1.3-.3.3-.8.2-1.1-.1 0 0-.1-.1-.1-.2 0 0 0-.1-.1-.1s-.2 0-.2.1c-.3.3-.5.6-.6 1-.1.4-.2.8-.2 1.2 0 .3 0 .7.1 1 .1.6.2 1.2.3 1.7.1.8.2 1.6.4 2.4.1.5.1 1 .2 1.4.1.8.2 1.6.3 2.3v.6c0 .3-.2.5-.5.5-.2 0-.5 0-.7.1s-.5.1-.8.1c-.6.1-1.3.2-1.9.2h-.6c-.7 0-1.3.1-2 .1-.6 0-1.2.1-1.8.1h-2.4c-.6 0-1.2-.1-1.8-.1-.7 0-1.5-.1-2.2-.2-.6 0-1.1-.1-1.7-.2-.6-.1-1.3-.2-1.9-.3h-.2c-.2 0-.3-.2-.3-.4v-.3c.1-.7.2-1.3.3-2 .1-.8.2-1.5.3-2.3.1-.4.1-.8.2-1.2.1-.5.2-1 .3-1.6 0-.2.1-.4.1-.6 0-.5 0-1.1-.1-1.6-.1-.3-.1-.6-.1-.9 0-.2-.2-.5-.3-.7-.1 0-.2.1-.3.1-.4.2-.9.1-1.2-.1-.3-.2-.5-.6-.5-1.1v-.4h-.1c-.4.1-.8 0-1.1-.2-.5-.3-1-.5-1.6-.5-.4 0-.8 0-1.1.1-.5.2-1 .5-1.5.9-.1.1-.2.2-.4.1-.2-.6-.1-1.3.3-1.8-.5-.2.1-.5.7-.6"/><path fill-rule="evenodd" clip-rule="evenodd" fill="#2F2A17" d="M244.8 33.9h1.7v-.2c-.1-.2-.2-.5-.3-.7l-.1-.1c-.3-.1-.6-.2-.9-.2-.2 0-.3.1-.3.3-.1.4-.1.7-.1.9m0-1.8h1c.1 0 .2-.1.2-.1.2-.2.3-.4.4-.6.2-.5.1-1.1-.2-1.6-.1-.1-.2-.2-.4-.2h-.4c-.4 0-.7.3-.7.7v1.3c.1.1.1.3.1.5m1 2.4h-.7c-.3 0-.3 0-.3.3v1.3c0 .5.1 1 .2 1.4 0 .3.3.5.5.5.3.1.6-.1.7-.3.2-.4.4-.9.5-1.3.1-.6.1-1.1 0-1.7 0-.2-.1-.2-.2-.2h-.7m-3.7-5.7c.1-.1.1-.2.2-.2.1-.3.3-.6.6-.8.2-.2.5-.3.8-.2.3.1.3.4.1.5-.3.3-.6.6-.8 1 0 .1-.1.1-.1.2-.1.5-.2.9-.2 1.4v2.9c0 .2.2.3.3.3h1v-4c0-.2-.1-.3-.1-.5v-.2c0-.2.1-.2.2-.2h1.8c.3 0 .5.1.7.3.2.2.4.4.5.6.1.1.1.1.1.2.2.6.2 1.2-.1 1.7-.2.3-.4.6-.7.8 0 .1 0 .2.1.3.3.3.6.6.7 1 0 .1.1.2.2.2h.8c.2 0 .2 0 .2-.2v-3.5c0-.3-.1-.6-.2-.9-.1-.3-.2-.5-.4-.7-.1-.1-.2-.2-.3-.2-.2.1-.3 0-.4-.1-.1-.2 0-.3.1-.5.1-.1.2-.2.4-.2s.4.1.6.2c.3.2.7.5.9.8l.1.1.2-.1c.2-.1.4-.2.6-.1.2 0 .3.2.1.3 0 .1-.1.1-.2.1-.3.1-.4.4-.4.7v7.8c0 .4.1.7.3 1.1.2.4.5.7.9.9.1 0 .2.1.3.1.1 0 .2.1.4.1.1.1.2.2.2.3 0 .1-.1.3-.3.3-.5.1-1 .1-1.4-.2-.4-.2-.7-.5-.9-.9-.1.1-.2.1-.2.2-.3.2-.5.4-.8.5-.1.1-.2.1-.3 0-.1-.1-.1-.3-.1-.4l.1-.1c.2-.2.4-.4.5-.6.2-.3.4-.7.4-1.2v-3c0-.2 0-.2-.3-.2h-.5c-.1.1-.1.2-.1.3.1.7.1 1.4-.1 2.1-.1.3-.3.7-.5.9-.2.3-.5.6-.8.8-.2.2-.5.3-.8.3-.4.1-.8 0-1.2-.2-.1 0-.1-.1-.2-.1-.3-.1-.3-.4-.2-.6.2-.2.3-.6.3-.9v-2.5c0-.3-.1-.4-.4-.3h-.8c-.2 0-.3.2-.3.4v2.7c0 .6.2 1.2.6 1.6l.2.2c.1.1.1.3 0 .4-.1.1-.2.1-.3 0-.1 0-.1 0-.2-.1-.2-.1-.4-.2-.5-.3-.1 0-.1-.1-.1-.1l-.6.6c-.3.2-.6.4-.9.5h-.2c-.1 0-.2 0-.3-.2 0-.1 0-.3.2-.3.2-.1.4-.2.6-.4.5-.4.8-.9.8-1.5.1-.4.1-.8.1-1.1v-6.6c0-.2 0-.4-.1-.6-.1-.2-.3-.3-.4-.4-.1-.1-.3-.1-.2-.3 0-.2.2-.3.3-.3 0 .1.2.2.4.3m9.3 16.3c-.2.2-.3.5-.3.8.2.1.4.1.5 0 0-.3-.1-.6-.2-.8m-.4 1.3c-.1.2-.1.4-.1.6-.1.2 0 .4.2.4.1.1.2.2.1.3 0 .1-.1.2-.2.2h-.8c-.1 0-.3 0-.4-.1h-1.4c-.2 0-.3-.1-.3-.3 0-.1.1-.2.2-.3.3 0 .4-.3.4-.5v-2.2c-.1.1-.1.1-.1.2-.2.5-.4 1-.6 1.6-.1.3-.1.4-.4.4-.2-.3-.3-.6-.5-.9-.1-.3-.3-.6-.5-.9 0 .1 0 .3-.1.4v1.5c0 .1 0 .2.1.3 0 .1.2.2.3.2.2 0 .2.1.2.2 0 .2-.1.3-.2.3h-1.2c-.1 0-.1 0-.2-.1-.1-.3-.1-.3.2-.4.1-.1.2-.2.2-.3v-2.9c0-.2-.1-.4-.2-.5l-.2-.2c-.1-.1-.1-.2 0-.3l.1-.1h.1c.3 0 .7.1 1 .1.1 0 .2.1.2.2.2.5.5 1.1.7 1.6 0 .1.1.1.1.2.1-.3.2-.6.4-.8.1-.3.2-.6.4-.9 0-.1.1-.1.2-.1h1.1c.2 0 .3.1.1.3-.1.1-.1.2-.2.3-.2.3-.2.7-.2 1v2c0 .2.1.4.2.5.2.2.4.2.6-.1.1-.1.1-.3.2-.4.2-.7.3-1.5.5-2.2.1-.3.2-.7.2-1 0-.1.1-.1.1-.2h.4c.1.1.1.2.1.3.3 1 .7 2.1 1 3.1.1.2.1.4.2.6 0 .2.1.4.3.5.1.1.2.3.1.5-.1.1-.2.1-.3.1-.1 0-.1 0-.2-.1-.3-.2-.7-.3-1-.2-.1 0-.2 0-.3-.2 0-.2 0-.3.1-.4.4-.2.4-.2.3-.7 0-.1-.1-.3-.1-.4 0-.1-.1-.1-.1-.1-.3-.1-.6-.1-.8-.1m-4.6-23.2c0-.3-.2-.5-.5-.6-.3 0-.5.2-.5.5s.2.5.5.6c.2 0 .4-.2.5-.5m-1.1 1.2c-.3.2-.5.3-.7.5-.2.1-.4.2-.6.4-.1.1-.2.1-.3 0-.1-.1 0-.2 0-.3.2-.3.4-.5.5-.8.1-.1.2-.3.3-.4-.1 0-.2-.1-.3-.1-.3-.1-.7-.1-1-.2-.1 0-.3-.1-.4-.2 0-.1.2-.2.3-.2.4-.1.8-.2 1.2-.2 0 0 .1 0 .1-.1-.1-.2-.2-.3-.2-.4-.2-.3-.3-.5-.5-.8-.1-.1-.1-.2 0-.3.1-.1.2-.1.3 0l.9.6c.1.1.2.1.3.2 0-.1.1-.2.1-.3.1-.3.1-.7.2-1 0-.1 0-.1.1-.2s.1-.1.2-.1.1.1.1.2c.1.4.1.8.2 1.1 0 .1 0 .2.2.3.1-.1.3-.2.4-.3.2-.2.5-.3.7-.5h.1c.1 0 .2-.1.3 0 .1.1.1.2 0 .3-.1.2-.3.5-.4.7-.1.2-.2.4-.4.6l.6.1c.3.1.6.1.9.2.1 0 .1 0 .1.1s0 .2-.1.2-.2.1-.3.1c-.3.1-.6.1-.9.2-.1 0-.2 0-.3.2.2.3.4.6.6 1 .1.1.1.2.1.2v.2c-.1 0-.1.1-.2 0-.2-.1-.4-.2-.6-.4-.2-.1-.4-.3-.6-.4-.1-.1-.2 0-.2.1-.1.3-.1.6-.2.8 0 .1-.1.2-.1.4s-.1.2-.2.2-.2-.1-.2-.2c-.1-.3-.1-.6-.2-.9.2-.2.2-.4.1-.6m-5.9 21.1c.2.1.4.1.6 0 .1-.1.3-.2.4-.3.3-.3.4-.7.1-1.1-.1-.1-.2-.2-.3-.2-.2 0-.3 0-.5.1s-.2.1-.2.2v.4c0 .4 0 .7-.1.9m1.2.4c.1.1.1.2.2.3.2.3.4.5.6.8.1.1.2.2.3.4.1.1.2.1.2.1.1 0 .2.2.2.3 0 .1-.1.2-.2.2-.3 0-.6.1-.9.1h-.2c-.1 0-.2-.1-.2-.2v-.1c.1-.2 0-.4-.1-.5-.3-.4-.5-.7-.8-1.1l-.1-.1c-.1-.1-.2-.1-.2.1v.4c0 .2-.1.5-.1.7s0 .4.3.6c.1.1.2.2.1.3 0 .1-.1.2-.2.2-.4 0-.7.1-1 .3-.2.1-.3.1-.4 0-.1-.2 0-.3.1-.4.2-.1.3-.4.4-.6.1-.4.1-.7.1-1.1s.1-.7.1-1.1c0-.3 0-.6.1-.9 0-.2-.1-.4-.2-.5-.1-.1-.1-.3 0-.4 0 0 .1 0 .1-.1.1 0 .2-.1.3-.1h1.4c.3 0 .5 0 .8.1.2.1.4.4.4.6.1.3 0 .7-.1 1-.1.2-.2.3-.3.4-.3.1-.5.2-.7.3"/><path fill-rule="evenodd" clip-rule="evenodd" fill="#2F2A17" d="M244.5 45.2c-.1-.4-.1-.8-.2-1.1 0-.2-.1-.3-.2-.4-.1-.2-.4-.2-.6-.1 0 0-.1 0-.1.1-.3.3-.5.7-.6 1.2v.3c-.1.3-.1.6 0 1 0 .4.1.7.3 1 .1.2.4.3.6.2.1 0 .1-.1.2-.2.1-.2.3-.4.3-.6.2-.6.3-1 .3-1.4m.8-.1c0 .4 0 .8-.1 1.2-.2.6-.5 1-1 1.4-.5.3-1.1.2-1.6-.2-.3-.4-.6-.8-.7-1.3-.1-.3-.1-.6-.1-1 0-.2 0-.5.1-.7.1-.4.3-.8.5-1.1.3-.4.7-.7 1.2-.7.1 0 .2 0 .3.1.5.1.9.5 1 1 .3.4.4.8.4 1.3"/><path fill="#8E1C15" d="M2.6 25.7v3.4h2.2c.5 0 1-.1 1.4-.4.3-.3.5-.7.5-1.2.1-.9-.5-1.7-1.4-1.8H2.6zm0-1.9h1.9c1.3 0 2-.5 2-1.6 0-.5-.1-.9-.5-1.2-.5-.3-1-.4-1.6-.4H2.6v3.2zM0 31.1V18.6h4.4c1.2-.1 2.4.2 3.5.9C8.6 20 9.1 21 9 22c0 .6-.2 1.1-.5 1.6s-.8.8-1.3 1c.6.1 1.1.5 1.5 1 .4.5.6 1.2.6 1.8.1 1-.4 2.1-1.2 2.7-1 .7-2.1 1-3.3 1H0zm11.6-12.5h2.6v12.6h-2.6zm7.7 7.1v3.4h2.2c.5 0 1-.1 1.4-.4.3-.3.5-.7.5-1.2.1-.9-.5-1.7-1.4-1.8h-2.7zm0-1.9h1.9c1.3 0 2-.5 2-1.6 0-.5-.1-.9-.5-1.2-.5-.3-1-.4-1.6-.4h-1.8v3.2zm-2.6 7.3V18.6h4.4c1.2-.1 2.4.2 3.5.9.8.6 1.2 1.6 1.2 2.6 0 .6-.2 1.1-.5 1.6s-.8.8-1.3 1c.6.1 1.1.5 1.5 1 .4.5.6 1.2.6 1.8.1 1-.4 2.1-1.2 2.7-1 .7-2.1 1-3.3 1l-4.9-.1zm14-2h5.5v2.1h-8.1V18.6h2.6v10.5zM38 18.6h2.6v12.6H38zm12.8 6c.1-1-.2-2.1-.7-3-.8-1.1-2.4-1.4-3.5-.6-.2.2-.4.3-.5.5-.5.9-.8 1.9-.7 3v.6c-.1 1 .2 2.1.7 3 .8 1.1 2.3 1.4 3.4.6l.6-.6c.5-.9.8-1.9.7-3v-.5zm2.7.5c0 1.1-.2 2.2-.7 3.3-.4.9-1 1.6-1.9 2.2-1.7 1-3.8 1-5.6 0-.8-.5-1.5-1.3-1.9-2.1-.5-1-.7-2.1-.7-3.2v-.6c0-1.1.2-2.2.7-3.3.4-.9 1.1-1.6 1.9-2.2 1.7-1 3.8-1 5.6 0 .8.5 1.5 1.3 1.9 2.2.5 1 .7 2.1.7 3.3v.4zm11.4-4.4h-3.8v10.5h-2.6V20.7h-3.8v-2.1h10.2v2.1zm11.4 10.4h-2.6v-5.4h-5v5.4h-2.6V18.6h2.6v5.1h5v-5.1h2.6v12.5zm9.9-5.4h-5v3.4H87v2.1h-8.4V18.6H87v2.1h-5.8v3h5v2zm12.3 1.2c0 1.2-.6 2.4-1.5 3.2-1 .8-2.3 1.2-3.5 1.2-1.4.1-2.8-.5-3.8-1.6-1-1.3-1.5-2.9-1.4-4.5v-.8c0-1.1.2-2.2.6-3.2.4-.9 1-1.6 1.8-2.1 2-1.1 4.4-1 6.2.4.9.9 1.5 2 1.5 3.3H96c0-.7-.2-1.3-.7-1.8-.5-.4-1.1-.6-1.8-.5-.8 0-1.5.3-1.9.9-.5.9-.7 1.9-.7 2.9v1c-.1 1 .1 2.1.6 3 .4.6 1.2 1 1.9.9.6.1 1.3-.1 1.8-.5.4-.5.7-1.1.7-1.7l2.6-.1zm5.1-.5h3.1l-1.6-4.7-1.5 4.7zm3.8 2.1h-4.5l-.9 2.6h-2.7l4.7-12.6h2.4l4.7 12.6h-2.7l-1-2.6zm19.6 2.6h-2.6v-5.4h-5v5.4h-2.6V18.6h2.6v5.1h5v-5.1h2.6v12.5zm9.9-5.4h-5v3.4h5.8v2.1h-8.4V18.6h8.4v2.1h-5.8v3h5v2zm5.1-1.3h2.1c.5 0 1.1-.1 1.5-.5.4-.4.6-.9.5-1.4 0-.5-.2-1-.5-1.4-.4-.4-1-.6-1.5-.5H142v3.8zm2 2.1h-2v4.6h-2.6V18.6h4.7c1.2-.1 2.4.3 3.4 1 .8.7 1.3 1.7 1.2 2.8 0 .8-.2 1.5-.6 2.1-.4.6-1 1.1-1.7 1.4l2.7 5.1v.1h-2.8l-2.3-4.6zm16.1-5.8h-3.8v10.5h-2.6V20.7h-3.8v-2.1h10.2v2.1zm4.4 8.4h6.3v2.1h-9.5v-1.5l6.2-9h-6.2v-2.1h9.4V20l-6.2 9.1zm8.2-10.5h2.6v12.6h-2.6zm8.3 7.8h3.1l-1.6-4.7-1.5 4.7zm3.8 2.1h-4.5l-.9 2.6h-2.7l4.7-12.6h2.4l4.7 12.6h-2.7l-1-2.6zm15.1 2.6h-2.6l-5-8.3v8.3h-2.6V18.6h2.6l5 8.3v-8.3h2.6v12.5zm5.6-4.7h3.1l-1.6-4.7-1.5 4.7zm3.8 2.1h-4.5l-.9 2.6h-2.7l4.7-12.6h2.4l4.7 12.6h-2.7l-1-2.6z"/><path fill="#2F2A17" d="M70 52.8h-4.1V57h-.7v-8.8h5.4v.6h-4.7v3.4H70v.6zm6.5-6.2c0-.1 0-.3.1-.3.2-.2.5-.2.7 0 .1.1.2.2.2.4 0 .1 0 .2-.1.3-.2.2-.5.2-.7 0-.2-.1-.2-.3-.2-.4m-2.7 0c0-.1 0-.3.1-.3.1-.1.2-.2.4-.1.3 0 .5.2.5.5 0 .1 0 .2-.1.3-.1.1-.2.1-.4.1s-.5-.2-.5-.5m4.9 1.5v6c0 .5-.1 1.1-.4 1.6-.3.4-.6.8-1.1 1-.5.2-1.1.4-1.6.4-.8 0-1.6-.2-2.2-.8-.6-.5-.9-1.3-.9-2.1v-6.1h.7v6c0 .6.2 1.3.6 1.7 1 .8 2.4.8 3.4 0 .4-.5.7-1.1.6-1.7v-6h.9zm3.3 4.6h2.3c.6 0 1.1-.2 1.5-.5.8-.8.8-2.1 0-2.8-.5-.4-1.1-.6-1.7-.5H82v3.8zm2.6.6H82V57h-.7v-8.8h2.9c.8 0 1.6.2 2.2.7.9.9 1.1 2.4.3 3.4-.3.4-.8.8-1.3.9l2.2 3.8h-.8l-2.2-3.7zm10.7-.7-1.2 1.2V57h-.7v-8.8h.7V53l4.5-4.8h.9l-3.7 3.9 4 4.9h-.9l-3.6-4.4zm12.4-4.5v6c0 .5-.1 1.1-.4 1.6-.3.4-.6.8-1.1 1-.5.2-1.1.4-1.6.4-.8 0-1.6-.2-2.2-.8-.6-.5-.9-1.3-.9-2.1v-6.1h.7v6c0 .6.2 1.3.6 1.7 1 .8 2.4.8 3.4 0 .4-.5.7-1.1.6-1.7v-6h.9zm9.2 8.9h-.7l-5-7.6V57h-.8v-8.8h.7l5.1 7.6v-7.6h.7V57zm7.8-2.2c0-.4-.2-.9-.5-1.2-.6-.4-1.2-.7-1.9-.8-.7-.2-1.4-.5-2-.8-.9-.6-1.2-1.9-.5-2.8.1-.2.3-.4.5-.5.6-.4 1.4-.7 2.1-.6.5 0 1.1.1 1.6.3.4.2.8.5 1.1.9.3.4.4.9.4 1.4h-.7c0-.6-.2-1.1-.6-1.5-.5-.4-1.1-.6-1.7-.6-.6 0-1.1.1-1.6.5-.4.3-.6.7-.6 1.2 0 .4.2.8.5 1.1.5.4 1.1.6 1.7.8.6.2 1.2.4 1.8.7.4.2.7.5.9.8.2.3.3.7.3 1.1 0 .7-.3 1.3-.8 1.7-.6.4-1.4.7-2.2.6-.6 0-1.2-.1-1.7-.3-.5-.2-.9-.5-1.2-.9-.3-.4-.4-.9-.4-1.4h.7c0 .6.2 1.1.7 1.5.5.4 1.2.6 1.8.5.6 0 1.2-.1 1.6-.5.4-.3.7-.7.7-1.2m8.8-6h-3V57h-.7v-8.2h-3v-.6h6.8l-.1.6zm8.3 7.1c-.3.4-.7.7-1.2.9-.6.2-1.2.3-1.8.3-.6 0-1.3-.2-1.8-.5s-1-.8-1.2-1.4c-.3-.7-.5-1.4-.4-2.1V52c-.1-1 .3-2.1.9-2.9.6-.7 1.5-1.1 2.5-1.1.8 0 1.6.2 2.2.7.6.5.9 1.2 1 1.9h-.7c-.1-.6-.3-1.1-.8-1.5-.5-.4-1-.5-1.6-.5-.8 0-1.5.3-1.9.9-.5.7-.8 1.6-.7 2.5v1c0 .6.1 1.2.3 1.8.2.5.5.9 1 1.2.4.3.9.4 1.5.4s1.1-.1 1.6-.3c.3-.1.5-.3.7-.5v-2.3H139v-.6h3.1v3.2h-.3zm7.6-3.2h-4.1v3.6h4.7v.7h-5.5v-8.8h5.4v.6h-4.7v3.3h4.1l.1.6zm7.7 2.1c0-.4-.2-.9-.5-1.2-.6-.4-1.2-.7-1.9-.8-.7-.2-1.4-.5-2-.8-.9-.6-1.2-1.9-.5-2.8.1-.2.3-.4.5-.5.6-.4 1.4-.7 2.1-.6.5 0 1.1.1 1.6.3.4.2.8.5 1.1.9.3.4.4.9.4 1.4h-.9c0-.6-.2-1.1-.6-1.5-.5-.4-1.1-.6-1.7-.6-.6 0-1.1.1-1.6.5-.4.3-.6.7-.6 1.2 0 .4.2.8.5 1.1.5.4 1.1.6 1.7.8.6.2 1.2.4 1.8.7.4.2.7.5.9.8.2.3.3.7.3 1.1 0 .7-.3 1.3-.8 1.7-.6.4-1.4.7-2.2.6-.6 0-1.2-.1-1.7-.3-.5-.2-.9-.5-1.2-.9-.3-.4-.4-.9-.4-1.4h.7c0 .6.2 1.1.7 1.5.5.4 1.2.6 1.8.5.6 0 1.2-.1 1.6-.5.7-.3.9-.7.9-1.2m9.1-.6c0 .8-.4 1.6-1 2.1s-1.4.8-2.2.7c-.6 0-1.2-.2-1.7-.5s-.9-.8-1.2-1.4c-.3-.6-.4-1.4-.4-2.1v-1c0-.7.1-1.4.4-2.1.2-.6.7-1.1 1.2-1.4.5-.3 1.1-.5 1.8-.5.8 0 1.6.2 2.2.8.6.6.9 1.3 1 2.1h-.7c0-1.2-1-2.2-2.2-2.3h-.2c-.7 0-1.4.3-1.9.9-.5.7-.8 1.6-.7 2.5v1.1c0 .9.2 1.7.7 2.4.4.6 1.1.9 1.9.9.6 0 1.3-.2 1.8-.6.4-.5.7-1.1.7-1.7l.5.1zm8.9 2.8h-.8v-4.2h-5V57h-.7v-8.8h.7v4h5v-4h.7l.1 8.8zm3-8.9h.7v8.8h-.7zm9.9 6.1c0 .8-.4 1.6-1 2.1s-1.4.8-2.2.7c-.6 0-1.2-.2-1.7-.5s-.9-.8-1.2-1.4c-.3-.6-.4-1.4-.4-2.1v-1c0-.7.1-1.4.4-2.1.2-.6.7-1.1 1.2-1.4.5-.3 1.1-.5 1.8-.5.8 0 1.6.2 2.2.8.6.6.9 1.3.9 2.1h-.7c0-1.2-1-2.2-2.2-2.3h-.2c-.7 0-1.4.3-1.9.9-.5.7-.8 1.6-.7 2.5v1.1c0 .9.2 1.7.7 2.4.4.6 1.1.9 1.9.9.6 0 1.3-.2 1.8-.6.4-.5.7-1.1.7-1.7l.6.1zm8.8 2.8h-.7v-4.2h-5V57h-.7v-8.8h.7v4h5v-4h.7V57zm8.8-8.2h-3V57h-.7v-8.2h-3v-.6h6.8l-.1.6zm6.8 3.9h-4.1v3.6h4.7v.7h-5.5v-8.8h5.4v.6h-4.7v3.3h4.1l.1.6zm-145-17.4 2.3 6.4 2.2-6.4h2.4v8.8h-1.8v-2.4l.2-4.2-2.4 6.6h-1.2l-2.4-6.6.2 4.2v2.4h-1.8v-8.8h2.3zm11.3 5.5h2.2l-1.1-3.3-1.1 3.3zm2.7 1.5h-3.2l-.6 1.8h-1.9l3.3-8.8h1.7l3.3 8.8h-2l-.6-1.8zm7-4 1.6-3h2.1l-2.6 4.4 2.6 4.5H90L88.5 41l-1.7 3.1h-2.1l2.6-4.4-2.6-4.4h2.1l1.6 3zm5.2 1.3H97V41h-3.4zm7.3-.1h1.6c.4 0 .8-.1 1.1-.3.3-.3.4-.6.4-1s-.1-.8-.4-1c-.3-.3-.7-.4-1-.4h-1.7v2.7zm0 1.5v3.1h-1.8v-8.8h3.4c.6 0 1.2.1 1.7.4.5.2.9.6 1.2 1 .3.5.4 1 .4 1.5 0 .8-.3 1.5-.9 2-.7.5-1.6.8-2.4.7l-1.6.1zm8.5 1.6h3.8v1.5h-5.7v-8.8h1.8v7.3zm7.8-1.8h2.2l-1.1-3.3-1.1 3.3zm2.6 1.5h-3.2l-.6 1.8h-1.9l3.3-8.8h1.7l3.3 8.8h-1.9l-.7-1.8zm11.1 1.8h-1.8l-3.5-5.8v5.8h-1.8v-8.8h1.8l3.5 5.8v-5.8h1.8v8.8zm9-2.9c0 .9-.4 1.7-1 2.2-.7.6-1.6.9-2.5.8-1 0-2-.4-2.7-1.1-.7-.9-1-2-1-3.1v-.5c0-.8.1-1.5.4-2.2.3-.6.7-1.1 1.3-1.5 1.4-.8 3.1-.7 4.4.3.6.6 1 1.4 1.1 2.3h-1.8c0-.5-.2-.9-.5-1.2-.3-.3-.8-.4-1.2-.4-.5 0-1 .2-1.4.7-.3.6-.5 1.3-.5 2v.5c-.1.7.1 1.4.4 2.1.3.4.8.7 1.4.7.5 0 .9-.1 1.3-.4.3-.3.5-.7.5-1.2h1.8zm4.5-.6-.9 1v2.5h-1.8v-8.8h1.8v4l.8-1.1 2.2-2.9h2.2l-3.1 3.9 3.2 4.9h-2.2l-2.2-3.5zm5.6-1h3.4V41H150zm5.6-4.3h1.8v8.8h-1.8zm11.2 8.8H165l-3.5-5.8v5.8h-1.8v-8.8h1.8l3.5 5.8v-5.8h1.8v8.8zm6.7-2.3c0-.3-.1-.6-.4-.8-.4-.3-.8-.5-1.3-.6l-1.5-.6c-.9-.4-1.5-1.2-1.5-2.2 0-.5.1-.9.4-1.3.3-.4.7-.7 1.2-.9.5-.2 1.1-.3 1.7-.3.6 0 1.1.1 1.7.3.5.2.9.5 1.1 1 .3.4.4.9.4 1.4h-1.8c0-.4-.1-.7-.4-.9-.3-.2-.7-.4-1.1-.3-.4 0-.7.1-1 .3-.2.2-.4.4-.4.7 0 .3.2.6.4.7.4.2.8.4 1.3.5.8.2 1.6.6 2.2 1.2.5.4.7 1.1.7 1.7 0 .7-.3 1.4-.9 1.8-.7.5-1.5.7-2.3.7-.6 0-1.3-.1-1.8-.4-.5-.2-1-.6-1.3-1-.3-.4-.4-1-.4-1.5h1.8c0 1 .6 1.5 1.7 1.5.4 0 .7-.1 1-.3.4-.1.5-.4.5-.7m10.2-5.1H181v7.4h-1.8v-7.4h-2.7v-1.5h7.2v1.5zm1.7-1.4h1.8v8.8h-1.8zm10.7 1.4h-2.7v7.4h-1.8v-7.4h-2.7v-1.5h7.2v1.5zm8.2-1.4v5.8c0 .9-.3 1.7-.9 2.3-.7.6-1.6.9-2.5.8-.9 0-1.8-.2-2.4-.8-.6-.6-1-1.4-.9-2.2v-5.9h1.8v5.8c0 .5.1.9.4 1.3.3.3.7.4 1.1.4 1 0 1.5-.5 1.5-1.6v-5.9h1.9zm8.7 1.4h-2.7v7.4h-1.8v-7.4h-2.7v-1.5h7.2v1.5z"/><path d="m389.4 14.8-.4 6.4h-2.1l-.4-4.3-11-.3-1.5 12.1 10.4-.2-.3 2.7-10.3-.2-1.7 13 5 .5-.2 1.5h-11.3l.1-1.5 3.1-.5 3.4-27.1-2.9-.4.2-1.7h19.9zm18.1 9.9c1.4 1.7 2.1 4.1 2.1 7.2 0 2.5-.5 4.8-1.5 7s-2.4 4-4.2 5.4-3.8 2.1-6 2.1c-2.6 0-4.6-.8-6-2.5-1.4-1.6-2.2-4-2.2-7 0-2.5.5-4.9 1.5-7.2s2.4-4.1 4.2-5.5c1.8-1.4 3.8-2.1 6.1-2.1 2.6 0 4.6.9 6 2.6zm-10.8 1.4c-1.2 1.3-2 2.9-2.6 4.8-.6 1.9-.9 3.9-.9 5.8 0 2.5.5 4.4 1.4 5.7.9 1.3 2.3 2 4 2 1.6 0 2.9-.6 4.1-1.9 1.1-1.2 2-2.8 2.6-4.7.6-1.9.9-3.8.9-5.8 0-2.5-.4-4.5-1.3-5.8-.9-1.3-2.2-2-3.9-2-1.7 0-3.1.6-4.3 1.9zm20.6 16c0 .7.1 1.2.4 1.5s.8.4 1.6.4c.6 0 1.3-.2 2.1-.6.9-.4 1.5-.8 2-1.2l.3 1.3c-.5.6-1.4 1.3-2.7 1.9-1.3.6-2.5.9-3.6.9-2.4 0-3.6-1.1-3.6-3.4 0-.7.1-1.6.2-2.6l2-15.3h-2.6l.4-1.5 2.6-.8c.6-.8 1.4-2.7 2.4-5.8h1.6l-.8 5.7h5.8l-.3 2.3h-5.7l-1.9 13.9c-.1 1.8-.2 2.8-.2 3.3zm27.3-17.4c1.4 1.7 2.1 4.1 2.1 7.2 0 2.5-.5 4.8-1.5 7s-2.4 4-4.2 5.4-3.8 2.1-6 2.1c-2.6 0-4.6-.8-6-2.5-1.4-1.6-2.2-4-2.2-7 0-2.5.5-4.9 1.5-7.2s2.4-4.1 4.2-5.5c1.8-1.4 3.8-2.1 6.1-2.1 2.5 0 4.6.9 6 2.6zm-10.9 1.4c-1.2 1.3-2 2.9-2.6 4.8-.6 1.9-.9 3.9-.9 5.8 0 2.5.5 4.4 1.4 5.7.9 1.3 2.3 2 4 2 1.6 0 2.9-.6 4.1-1.9 1.1-1.2 2-2.8 2.6-4.7.6-1.9.9-3.8.9-5.8 0-2.5-.4-4.5-1.3-5.8-.9-1.3-2.2-2-3.9-2-1.7 0-3.1.6-4.3 1.9zm20.6 16c0 .7.1 1.2.4 1.5s.8.4 1.6.4c.6 0 1.3-.2 2.1-.6.9-.4 1.5-.8 2-1.2l.3 1.3c-.5.6-1.4 1.3-2.7 1.9-1.3.6-2.5.9-3.6.9-2.4 0-3.6-1.1-3.6-3.4 0-.7.1-1.6.2-2.6l2-15.3h-2.6l.4-1.5 2.6-.8c.6-.8 1.4-2.7 2.4-5.8h1.6l-.8 5.7h5.8l-.3 2.3h-5.7l-1.9 13.9c-.1 1.8-.2 2.8-.2 3.3zm20-18.3c1.6-1.1 3.3-1.7 4.9-1.7 1.5 0 2.7.5 3.5 1.4.8.9 1.2 2.5 1.2 4.7 0 1.2-.3 3.3-.9 6.3 0 .2-.1.4-.1.5 0 .2-.1.4-.1.6-.1.5-.2.9-.2 1.3-.5 2.6-.8 4.6-.9 5.8 0 .5 0 .8.1 1.1.1.3.3.4.5.4.3 0 .6-.1.9-.3.3-.2.7-.5 1.3-1l.5.9c-.1.3-.4.6-.8 1s-1 .8-1.6 1.1c-.6.3-1.3.5-2 .5-1.5 0-2.3-.8-2.3-2.3 0-.7.1-1.7.3-3 .2-1.2.4-2 .4-2.2 0-.1.2-.9.4-2.4.4-1.8.6-3.4.8-4.6.2-1.2.3-2.4.3-3.5 0-1.3-.2-2.3-.7-2.8-.4-.5-1.1-.8-2.1-.8-1.3 0-2.7.6-4.2 1.7s-2.8 2.6-3.9 4.2l-2 15.3h-3.2l4.1-31-2.4-.7.3-1.4 4.8-.7.8.5-2 15.4c1.2-1.7 2.6-3.1 4.3-4.3zM501.8 45c-1.6.9-3.3 1.4-5.1 1.4-1.8 0-3.4-.4-4.6-1.3-1.2-.8-2.1-1.9-2.7-3.3-.6-1.4-.9-2.8-.9-4.4 0-2.6.5-5.1 1.6-7.5 1.1-2.4 2.5-4.2 4.3-5.7 1.8-1.4 3.9-2.1 6.1-2.1 1.9 0 3.3.5 4.3 1.4s1.5 2.2 1.5 3.7c0 2-.8 3.7-2.5 5-1.7 1.4-3.7 2.4-5.9 3.1-2.3.7-4.2 1-5.9 1.1v1c0 1.8.4 3.3 1.3 4.7.8 1.3 2.1 2 3.9 2 1.2 0 2.4-.3 3.7-.8 1.3-.6 2.5-1.4 3.6-2.5l.8 1.4c-.8.9-1.9 1.9-3.5 2.8zM496 25.8c-1.1 1.1-2 2.4-2.7 4.1-.7 1.6-1.1 3.2-1.2 4.7 1.6-.1 3.2-.4 4.9-.9 1.7-.6 3.1-1.4 4.3-2.4 1.1-1 1.7-2.2 1.7-3.6 0-1.1-.3-2-.9-2.6-.6-.6-1.3-.9-2.4-.9-1.3-.1-2.6.5-3.7 1.6zm21.5-13.1L513 46h-3.2l4.1-31-2.4-.7.3-1.4 4.8-.7.9.5zm.4 19c1.3-.8 2.3-1.4 3.1-2 .8-.6 1.5-1.3 2.1-2.2.7-.9 1.1-1.9 1.2-3.1.1-.6.4-1.1.8-1.4.4-.3.9-.5 1.4-.5.5 0 .9.2 1.2.5.3.3.5.8.5 1.3 0 .8-.3 1.6-.9 2.5-.7 1-1.7 1.9-3 2.8-1.3.9-2.8 1.8-4.6 2.9l-1.6.9 5.9 8.8c.4.6.8 1 1.2 1.3.4.3.8.5 1.2.5.3 0 .6-.1.8-.2.3-.1.6-.4 1-.8l.7 1.2c-.4.6-.9 1.2-1.6 1.6-.7.5-1.6.7-2.5.7-1.4 0-2.5-.7-3.4-2.2l-6.3-10.7c.9-.7 1.8-1.3 2.8-1.9zm12.6 10.7c.5-.6 1.1-.9 1.8-.9.6 0 1.1.2 1.5.5s.5.8.5 1.3c0 .9-.3 1.6-.8 2.2-.6.6-1.2.8-1.9.8-.5 0-1-.2-1.3-.5-.4-.3-.5-.8-.5-1.4-.1-.8.1-1.5.7-2z" fill="#8E1B15"/></svg>